<svg width="383" height="400" viewBox="0 0 383 500" fill="none" xmlns="http://www.w3.org/2000/svg">
<path fill-rule="evenodd" clip-rule="evenodd" d="M0 372.183C0 372.183 115.42 372.183 166.385 345.17C194.598 330.216 190.044 315.569 183.237 293.676C177.747 276.02 170.793 253.652 178.377 222.61C187.057 187.079 216.612 178.977 251.775 169.339C285.426 160.115 324.212 149.483 354.754 112.055C417.211 35.5175 354.754 0 354.754 0H0V372.183Z" fill="#D07DB9"/>
<path fill-rule="evenodd" clip-rule="evenodd" d="M200.106 0C198.724 0.469158 197.3 0.96039 195.837 1.47365C179.048 7.36271 157.099 16.1731 136.577 27.8392C116.103 39.4779 96.7945 54.1005 85.5712 71.719C74.2341 89.5159 71.2123 110.304 83.2791 133.652C94.6833 155.717 105.846 175.462 115.99 193.405L116.644 194.562C126.973 212.833 136.199 229.196 143.565 244.313C158.319 274.589 165.347 299.357 159.079 323.707C155.976 335.762 145.021 352.868 129.913 372.004C114.892 391.029 96.0497 411.718 77.5757 430.868C59.1083 450.011 41.0419 467.584 27.59 480.373C22.2405 485.459 17.6221 489.787 14 493.155V499.972C14.2592 499.732 14.527 499.485 14.8033 499.229C18.705 495.619 24.2914 490.408 31.035 483.997C44.5206 471.176 62.6417 453.55 81.1743 434.339C99.7003 415.135 118.67 394.312 133.837 375.102C148.917 356.003 160.524 338.149 163.921 324.953C170.653 298.8 162.931 272.641 148.06 242.122C140.614 226.842 131.308 210.341 120.997 192.101L120.356 190.968C110.205 173.012 99.0816 153.338 87.7209 131.356C76.5377 109.718 79.3284 90.8252 89.7882 74.4053C100.362 57.807 118.834 43.6768 139.048 32.1859C159.214 20.7225 180.858 12.0266 197.492 6.19178C205.104 3.52135 211.654 1.45476 216.515 0H200.106Z" fill="#FFEBF9"/>
</svg>
