<svg width="1024" height="585" viewBox="0 0 1440 823" fill="none" xmlns="http://www.w3.org/2000/svg">
<circle cx="1295" cy="450" r="450" fill="#FFE9F8"/>
<path d="M174.717 320.425C219.176 289.44 240.65 232.209 223.85 177.625C203.036 110.002 131.36 72.0497 63.756 92.8572C-3.84762 113.665 -41.7787 185.352 -20.9652 252.975C-16.415 267.759 -9.43405 281.124 -0.595699 292.768C60.4553 377.903 50.7726 439.303 -33.5116 501.504C-77.9607 532.491 -99.428 589.717 -82.6296 644.295C-61.8161 711.918 9.86045 749.87 77.4641 729.062C91.3413 724.791 103.968 718.376 115.093 710.292C215.322 641.431 286.225 654.176 356.268 753.638C386.871 799.632 445.093 822.13 500.573 805.054C568.176 784.246 606.108 712.559 585.294 644.935C564.48 577.312 492.804 539.36 425.2 560.168C411.328 564.438 398.705 570.85 387.582 578.93C287.34 647.804 216.432 635.054 146.382 535.57C144.926 533.383 143.407 531.248 141.829 529.169C80.7676 444.029 90.4413 382.627 174.717 320.425Z" fill="#D0EEFF"/>
<circle cx="1318.52" cy="333.436" r="14" transform="rotate(22.8479 1318.52 333.436)" fill="#C4C4C4"/>
<circle cx="1296" cy="386.885" r="14" transform="rotate(22.8479 1296 386.885)" fill="#C4C4C4"/>
<circle cx="1273.48" cy="440.335" r="14" transform="rotate(22.8479 1273.48 440.335)" fill="#C4C4C4"/>
<circle cx="1250.96" cy="493.784" r="14" transform="rotate(22.8479 1250.96 493.784)" fill="#C4C4C4"/>
<circle cx="1228.44" cy="547.233" r="14" transform="rotate(22.8479 1228.44 547.233)" fill="#C4C4C4"/>
<circle cx="1362.75" cy="352.074" r="14" transform="rotate(22.8479 1362.75 352.074)" fill="#C4C4C4"/>
<circle cx="1340.23" cy="405.523" r="14" transform="rotate(22.8479 1340.23 405.523)" fill="#C4C4C4"/>
<circle cx="1317.71" cy="458.972" r="14" transform="rotate(22.8479 1317.71 458.972)" fill="#C4C4C4"/>
<circle cx="1295.19" cy="512.422" r="14" transform="rotate(22.8479 1295.19 512.422)" fill="#C4C4C4"/>
<circle cx="1272.67" cy="565.871" r="14" transform="rotate(22.8479 1272.67 565.871)" fill="#C4C4C4"/>
<circle cx="1406.99" cy="370.712" r="14" transform="rotate(22.8479 1406.99 370.712)" fill="#C4C4C4"/>
<circle cx="1384.47" cy="424.161" r="14" transform="rotate(22.8479 1384.47 424.161)" fill="#C4C4C4"/>
<circle cx="1361.95" cy="477.61" r="14" transform="rotate(22.8479 1361.95 477.61)" fill="#C4C4C4"/>
<circle cx="1339.42" cy="531.059" r="14" transform="rotate(22.8479 1339.42 531.059)" fill="#C4C4C4"/>
<circle cx="1316.9" cy="584.508" r="14" transform="rotate(22.8479 1316.9 584.508)" fill="#C4C4C4"/>
<circle cx="1451.22" cy="389.349" r="14" transform="rotate(22.8479 1451.22 389.349)" fill="#C4C4C4"/>
<circle cx="1428.7" cy="442.798" r="14" transform="rotate(22.8479 1428.7 442.798)" fill="#C4C4C4"/>
<circle cx="1406.18" cy="496.248" r="14" transform="rotate(22.8479 1406.18 496.248)" fill="#C4C4C4"/>
<circle cx="1383.66" cy="549.697" r="14" transform="rotate(22.8479 1383.66 549.697)" fill="#C4C4C4"/>
<circle cx="1361.14" cy="603.146" r="14" transform="rotate(22.8479 1361.14 603.146)" fill="#C4C4C4"/>
<circle cx="1450.41" cy="514.885" r="14" transform="rotate(22.8479 1450.41 514.885)" fill="#C4C4C4"/>
<circle cx="1427.89" cy="568.335" r="14" transform="rotate(22.8479 1427.89 568.335)" fill="#C4C4C4"/>
<circle cx="1405.37" cy="621.784" r="14" transform="rotate(22.8479 1405.37 621.784)" fill="#C4C4C4"/>
</svg>
