<svg width="591" height="724" viewBox="0 0 591 724" fill="none" xmlns="http://www.w3.org/2000/svg">
<path d="M174.717 233.425C219.176 202.44 240.65 145.209 223.85 90.6248C203.036 23.0016 131.36 -14.9503 63.756 5.85722C-3.84762 26.6647 -41.7787 98.3523 -20.9652 165.975C-16.415 180.759 -9.43405 194.124 -0.595699 205.768C60.4553 290.903 50.7726 352.303 -33.5116 414.504C-77.9607 445.491 -99.428 502.717 -82.6296 557.295C-61.8161 624.918 9.86045 662.87 77.4641 642.062C91.3413 637.791 103.968 631.376 115.093 623.292C215.322 554.431 286.225 567.176 356.268 666.638C386.871 712.632 445.093 735.13 500.573 718.054C568.176 697.246 606.108 625.559 585.294 557.935C564.48 490.312 492.804 452.36 425.2 473.168C411.328 477.438 398.705 483.85 387.582 491.93C287.34 560.804 216.432 548.054 146.382 448.57C144.926 446.383 143.407 444.248 141.829 442.169C80.7676 357.029 90.4413 295.627 174.717 233.425Z" fill="#D0EEFF"/>
</svg>
