<svg width="355" height="355" viewBox="0 0 355 355" fill="none" xmlns="http://www.w3.org/2000/svg">
<g filter="url(#filter0_d_187_517)">
<path d="M255.156 243.121L177.5 286.803L99.8438 243.121V196.97L77.6562 184.644V256.097L177.5 312.259L277.344 256.097V184.644L255.156 196.97V243.121V243.121Z" fill="url(#paint0_angular_187_517)"/>
<path d="M177.5 31.8784L22.1875 112.411V131.64L177.5 217.923L310.625 143.967V205.234H332.812V112.411L177.5 31.8784ZM288.438 130.912L266.25 143.237L177.5 192.546L88.75 143.237L66.5625 130.912L51.1845 122.368L177.5 56.8713L303.816 122.368L288.438 130.912Z" fill="url(#paint1_angular_187_517)"/>
</g>
<defs>
<filter id="filter0_d_187_517" x="-10" y="-6" width="375" height="375" filterUnits="userSpaceOnUse" color-interpolation-filters="sRGB">
<feFlood flood-opacity="0" result="BackgroundImageFix"/>
<feColorMatrix in="SourceAlpha" type="matrix" values="0 0 0 0 0 0 0 0 0 0 0 0 0 0 0 0 0 0 127 0" result="hardAlpha"/>
<feOffset dy="4"/>
<feGaussianBlur stdDeviation="5"/>
<feComposite in2="hardAlpha" operator="out"/>
<feColorMatrix type="matrix" values="0 0 0 0 0 0 0 0 0 0 0 0 0 0 0 0 0 0 0.25 0"/>
<feBlend mode="normal" in2="BackgroundImageFix" result="effect1_dropShadow_187_517"/>
<feBlend mode="normal" in="SourceGraphic" in2="effect1_dropShadow_187_517" result="shape"/>
</filter>
<radialGradient id="paint0_angular_187_517" cx="0" cy="0" r="1" gradientUnits="userSpaceOnUse" gradientTransform="translate(177.5 248.451) rotate(90) scale(63.8078 99.8438)">
<stop stop-color="#D07DB9"/>
<stop offset="1" stop-color="white"/>
</radialGradient>
<radialGradient id="paint1_angular_187_517" cx="0" cy="0" r="1" gradientUnits="userSpaceOnUse" gradientTransform="translate(177.5 124.901) rotate(90) scale(93.0221 155.312)">
<stop stop-color="#D07DB9"/>
<stop offset="1" stop-color="white"/>
</radialGradient>
</defs>
</svg>
