<svg width="124" height="130" viewBox="0 0 124 130" fill="none" xmlns="http://www.w3.org/2000/svg">
<g clip-path="url(#clip0_183_687)">
<path d="M106.474 110.64C130.744 86.0635 130.744 46.2178 106.474 21.6417C82.2031 -2.93434 42.8529 -2.93435 18.5824 21.6417C-5.68815 46.2178 -5.68815 86.0635 18.5824 110.64C42.8529 135.216 82.2031 135.216 106.474 110.64Z" fill="#75AADB"/>
<path d="M83.7974 86.2247H90.5379V91.5265H80.2465L63.1947 65.647H54.107V86.2247H62.994V91.5265H40.626V86.2247H48.3094V40.6206L40.626 39.6659V34.6484C43.5348 35.3188 46.0625 35.786 49.2322 35.786C54.0067 35.786 58.8815 34.6484 63.6561 34.6484C72.9243 34.6484 81.5305 38.9143 81.5305 49.3352C81.5305 57.3997 76.7559 62.5187 69.3534 64.6923L83.7974 86.2247ZM54.107 60.528L58.9818 60.6295C70.878 60.8124 75.452 56.1809 75.452 50.0055C75.452 42.7942 70.2963 39.9503 63.7564 39.9503C60.667 39.9503 57.4773 40.2347 54.107 40.6206V60.528Z" fill="white"/>
</g>
<defs>
<clipPath id="clip0_183_687">
<rect width="124" height="130" fill="white"/>
</clipPath>
</defs>
</svg>
