<svg width="822" height="653" viewBox="0 0 822 653" fill="none" xmlns="http://www.w3.org/2000/svg">
<path d="M-413.36 46.4522C-265.894 0.30812 -79.3191 -32.1878 38.0024 52.952C155.324 138.092 240.871 -19.8389 384.265 16.5566C527.658 52.9521 460.035 189.435 605.872 110.145C751.71 30.8548 915.471 357.114 751.71 377.912C587.948 398.709 577.357 454.602 715.861 559.889C854.366 665.176 202.578 701.571 167.545 559.889C132.512 418.207 -156.719 552.74 -362.032 559.889C-567.345 567.038 -595.046 301.871 -486.686 272.625C-378.327 243.379 -560.827 92.5962 -413.36 46.4522Z" fill="#FFDB96"/>
<path d="M22.7223 181.425C-140.87 213.258 2.85278 74.9307 -118.351 51.7797C-239.555 28.6287 -309.099 157.696 -309.099 157.696C-309.099 157.696 -361.422 349.849 -281.944 451.713C-202.466 553.578 -32.9124 421.038 62.4613 510.17C157.835 599.301 259.169 726.632 455.878 583.674C652.586 440.717 654.573 566.311 745.31 510.17C836.048 454.029 835.386 399.624 789.686 315.701C743.986 231.779 563.835 315.701 517.473 257.245C471.111 198.789 517.473 84.7699 364.478 64.5128C211.483 44.2557 186.315 149.593 22.7223 181.425Z" stroke="#CB7ACD" stroke-width="3" stroke-linecap="round" stroke-linejoin="round" stroke-dasharray="20 20"/>
<rect width="183" height="189" transform="translate(166 152)" fill="white"/>
<path d="M176 165H221M176 186H221M176.5 165.5V185.5M220.5 165.5V185.5M176.215 165.049L220.215 186.049M176.785 185.993L220.812 165.048M175 195H340M175 255H340M175 255.504V194.496M339.5 255.508V194.5M175.5 265.5V327.5M264.5 265.5V327.5M250.5 264.5V326.5M339.5 264.5V326.5M175 265H250M264 265H339M176 327H251M265 327H340M188 212H232M188 221H232M188 230H232M188 239H232M176.315 267.112L250.315 327.112M274 283H330M274 290H330M274 297H330M274 304H330M274 311H330M220 186H340M220 165H340M339.5 165.5V186.5M167.5 154.5L167.5 339.5M347.5 154.5L347.5 339.5M167 154H347M168 339H348" stroke="#4D4D4D" stroke-width="3"/>
<rect width="181" height="185" transform="translate(423 145)" fill="white"/>
<rect x="431" y="185" width="165" height="61" fill="white"/>
<rect x="433" y="156" width="162" height="20" fill="#505050"/>
<line x1="432" y1="155.5" x2="477" y2="155.5" stroke="black"/>
<line x1="432" y1="176.5" x2="477" y2="176.5" stroke="black"/>
<line x1="432.5" y1="156" x2="432.5" y2="176" stroke="black"/>
<path fill-rule="evenodd" clip-rule="evenodd" d="M431.5 184.996V185H596V246.009H595V246H431.5V246.004H430.5V184.996H431.5ZM595 245V186H431.5V245H595Z" fill="#C4C4C4"/>
<line x1="431.5" y1="256" x2="431.5" y2="318" stroke="black"/>
<line x1="431.5" y1="256" x2="431.5" y2="318" stroke="#C4C4C4"/>
<line x1="506.5" y1="255" x2="506.5" y2="317" stroke="#C4C4C4"/>
<line x1="431" y1="255.5" x2="506" y2="255.5" stroke="#C4C4C4"/>
<line x1="432" y1="317.5" x2="507" y2="317.5" stroke="black"/>
<line x1="432" y1="317.5" x2="507" y2="317.5" stroke="#C4C4C4"/>
<line x1="444" y1="202.5" x2="488" y2="202.5" stroke="black"/>
<line x1="444" y1="211.5" x2="488" y2="211.5" stroke="black"/>
<line x1="444" y1="220.5" x2="488" y2="220.5" stroke="black"/>
<line x1="444" y1="229.5" x2="488" y2="229.5" stroke="black"/>
<line x1="530" y1="273.5" x2="586" y2="273.5" stroke="black"/>
<line x1="530" y1="280.5" x2="586" y2="280.5" stroke="black"/>
<line x1="530" y1="287.5" x2="586" y2="287.5" stroke="black"/>
<line x1="530" y1="294.5" x2="586" y2="294.5" stroke="black"/>
<line x1="530" y1="301.5" x2="586" y2="301.5" stroke="black"/>
<line x1="476" y1="176.5" x2="596" y2="176.5" stroke="black"/>
<line x1="476" y1="155.5" x2="596" y2="155.5" stroke="black"/>
<line x1="595.5" y1="156" x2="595.5" y2="177" stroke="black"/>
<line x1="423.5" y1="145" x2="423.5" y2="330" stroke="black"/>
<line x1="602.5" y1="145" x2="602.5" y2="330" stroke="black"/>
<line x1="423" y1="144.5" x2="603" y2="144.5" stroke="black"/>
<line x1="424" y1="329.5" x2="604" y2="329.5" stroke="black"/>
<circle cx="482.5" cy="275.5" r="17.5" fill="#FCE77B"/>
<path d="M457 268.5C450 265 432 276 432 276L431.5 277.5V317L506.5 317.5V293.5L506 294C506 294 492.5 300.5 470 301.5C447.5 302.5 464 272 457 268.5Z" fill="#B0E3FF"/>
<path d="M449.062 159L451.932 161.319L455.124 163L454.802 167L455.124 171L451.932 172.681L449.062 167L446.192 172.681L443 171L443.322 167L443 163L446.192 161.319L449.062 159Z" fill="#ABB8FF"/>
<path fill-rule="evenodd" clip-rule="evenodd" d="M557.759 224.535C557.341 223.98 557.602 222.872 558.285 221.495C562.885 219.647 566.34 215.552 567.292 210.569C568.434 209.658 569.362 209.167 569.839 209.359C570.789 209.84 571.863 210.111 573 210.111C576.866 210.111 580 206.977 580 203.111C580 199.245 576.866 196.111 573 196.111C570.176 196.111 567.742 197.784 566.636 200.192C566.418 200.582 565.78 200.606 565.253 199.853C562.631 195.733 558.023 193 552.778 193C544.616 193 538 199.616 538 207.778C538 213.285 541.012 218.088 545.479 220.63C546.291 221.149 546.292 221.913 545.77 222.253C542.984 223.868 541.111 226.882 541.111 230.333C541.111 235.488 545.29 239.667 550.444 239.667C555.599 239.667 559.778 235.488 559.778 230.333C559.778 228.142 559.023 226.128 557.759 224.535Z" fill="url(#paint0_linear_32_5)"/>
<rect x="183" y="389" width="120.004" height="146" rx="20" fill="white"/>
<rect x="185.002" y="391" width="116" height="142" rx="18" stroke="black" stroke-width="4"/>
<line x1="183" y1="411.5" x2="303.004" y2="411.5" stroke="black" stroke-width="4"/>
<path d="M207.732 464.826C206.505 466.053 206.505 468.043 207.732 469.27L227.733 489.271C228.961 490.499 230.951 490.499 232.178 489.271C233.405 488.044 233.405 486.054 232.178 484.827L214.399 467.048L232.178 449.269C233.405 448.042 233.405 446.052 232.178 444.824C230.951 443.597 228.961 443.597 227.733 444.824L207.732 464.826ZM212.05 463.905H209.955V470.191H212.05V463.905Z" fill="#FF0000"/>
<path d="M278.272 469.174C279.499 467.947 279.499 465.957 278.272 464.73L258.271 444.729C257.043 443.501 255.053 443.501 253.826 444.729C252.599 445.956 252.599 447.946 253.826 449.173L271.605 466.952L253.826 484.731C252.599 485.958 252.599 487.948 253.826 489.176C255.053 490.403 257.043 490.403 258.271 489.176L278.272 469.174ZM273.954 470.095H276.049V463.809H273.954V470.095Z" fill="#FF0000"/>
<path d="M413 386C413 380.477 417.477 376 423 376H594C599.523 376 604 380.477 604 386V392H413V386Z" fill="#555555"/>
<path d="M594 508.5H423C417.753 508.5 413.5 504.247 413.5 499V390.5H603.5V499C603.5 504.247 599.247 508.5 594 508.5Z" fill="white" stroke="#555555"/>
<circle cx="586" cy="384" r="2" fill="#FF0000"/>
<circle cx="576" cy="384" r="2" fill="#FFCD6A"/>
<circle cx="566" cy="384" r="2" fill="#79BC90"/>
<rect x="426.5" y="441.5" width="97" height="118" rx="9.5" fill="white" stroke="#555555"/>
<rect x="541.5" y="459.5" width="45" height="76" rx="9.5" fill="white" stroke="#555555"/>
<circle cx="475" cy="551" r="4" fill="#C4C4C4"/>
<rect x="432" y="450" width="86" height="95" fill="#C4C4C4"/>
<rect x="546" y="464" width="36" height="66" fill="#C4C4C4"/>
<defs>
<linearGradient id="paint0_linear_32_5" x1="559" y1="193" x2="559" y2="239.667" gradientUnits="userSpaceOnUse">
<stop stop-color="#794AFF"/>
<stop offset="1" stop-color="#00C159"/>
</linearGradient>
</defs>
</svg>
