<svg width="900" height="900" viewBox="0 0 900 900" fill="none" xmlns="http://www.w3.org/2000/svg">
<circle cx="450" cy="450" r="450" fill="#FFE9F8"/>
<circle cx="473.518" cy="333.436" r="14" transform="rotate(22.8479 473.518 333.436)" fill="#C4C4C4"/>
<circle cx="450.998" cy="386.885" r="14" transform="rotate(22.8479 450.998 386.885)" fill="#C4C4C4"/>
<circle cx="428.477" cy="440.334" r="14" transform="rotate(22.8479 428.477 440.334)" fill="#C4C4C4"/>
<circle cx="405.957" cy="493.783" r="14" transform="rotate(22.8479 405.957 493.783)" fill="#C4C4C4"/>
<circle cx="383.435" cy="547.233" r="14" transform="rotate(22.8479 383.435 547.233)" fill="#C4C4C4"/>
<circle cx="517.752" cy="352.073" r="14" transform="rotate(22.8479 517.752 352.073)" fill="#C4C4C4"/>
<circle cx="495.231" cy="405.523" r="14" transform="rotate(22.8479 495.231 405.523)" fill="#C4C4C4"/>
<circle cx="472.711" cy="458.972" r="14" transform="rotate(22.8479 472.711 458.972)" fill="#C4C4C4"/>
<circle cx="450.19" cy="512.421" r="14" transform="rotate(22.8479 450.19 512.421)" fill="#C4C4C4"/>
<circle cx="427.669" cy="565.87" r="14" transform="rotate(22.8479 427.669 565.87)" fill="#C4C4C4"/>
<circle cx="561.986" cy="370.711" r="14" transform="rotate(22.8479 561.986 370.711)" fill="#C4C4C4"/>
<circle cx="539.466" cy="424.16" r="14" transform="rotate(22.8479 539.466 424.16)" fill="#C4C4C4"/>
<circle cx="516.945" cy="477.61" r="14" transform="rotate(22.8479 516.945 477.61)" fill="#C4C4C4"/>
<circle cx="494.424" cy="531.059" r="14" transform="rotate(22.8479 494.424 531.059)" fill="#C4C4C4"/>
<circle cx="471.903" cy="584.508" r="14" transform="rotate(22.8479 471.903 584.508)" fill="#C4C4C4"/>
<circle cx="606.219" cy="389.349" r="14" transform="rotate(22.8479 606.219 389.349)" fill="#C4C4C4"/>
<circle cx="583.699" cy="442.798" r="14" transform="rotate(22.8479 583.699 442.798)" fill="#C4C4C4"/>
<circle cx="561.178" cy="496.247" r="14" transform="rotate(22.8479 561.178 496.247)" fill="#C4C4C4"/>
<circle cx="538.658" cy="549.696" r="14" transform="rotate(22.8479 538.658 549.696)" fill="#C4C4C4"/>
<circle cx="516.136" cy="603.146" r="14" transform="rotate(22.8479 516.136 603.146)" fill="#C4C4C4"/>
<circle cx="650.454" cy="407.987" r="14" transform="rotate(22.8479 650.454 407.987)" fill="#C4C4C4"/>
<circle cx="627.933" cy="461.436" r="14" transform="rotate(22.8479 627.933 461.436)" fill="#C4C4C4"/>
<circle cx="605.413" cy="514.885" r="14" transform="rotate(22.8479 605.413 514.885)" fill="#C4C4C4"/>
<circle cx="582.892" cy="568.335" r="14" transform="rotate(22.8479 582.892 568.335)" fill="#C4C4C4"/>
<circle cx="560.371" cy="621.784" r="14" transform="rotate(22.8479 560.371 621.784)" fill="#C4C4C4"/>
</svg>
