<svg width="80" height="80" viewBox="0 0 80 80" fill="none" xmlns="http://www.w3.org/2000/svg">
<path fill-rule="evenodd" clip-rule="evenodd" d="M3.33301 9.45968C3.33301 7.83479 3.97849 6.27645 5.12747 5.12747C6.27644 3.9785 7.83478 3.33302 9.45968 3.33302H70.533C71.3383 3.3317 72.1359 3.48923 72.8801 3.79657C73.6244 4.10392 74.3008 4.55505 74.8705 5.12414C75.4402 5.69322 75.8921 6.36909 76.2002 7.11305C76.5084 7.857 76.6668 8.65443 76.6663 9.45968V70.533C76.6672 71.3384 76.5093 72.1361 76.2016 72.8804C75.8939 73.6247 75.4424 74.301 74.8731 74.8707C74.3037 75.4404 73.6276 75.8922 72.8835 76.2003C72.1393 76.5084 71.3417 76.6668 70.5363 76.6663H9.45968C8.65483 76.6663 7.85787 76.5078 7.11433 76.1997C6.37079 75.8916 5.69525 75.44 5.12629 74.8707C4.55733 74.3014 4.10611 73.6256 3.79842 72.8819C3.49072 72.1382 3.33257 71.3412 3.33301 70.5363V9.45968ZM32.3597 31.293H42.2897V36.2797C43.723 33.413 47.3897 30.833 52.8997 30.833C63.463 30.833 65.9663 36.543 65.9663 47.0197V66.4263H55.2763V49.4063C55.2763 43.4397 53.843 40.073 50.203 40.073C45.153 40.073 43.053 43.703 43.053 49.4063V66.4263H32.3597V31.293ZM14.0263 65.9697H24.7197V30.833H14.0263V65.9664V65.9697ZM26.2497 19.373C26.2698 20.2886 26.1069 21.199 25.7705 22.0507C25.434 22.9025 24.9308 23.6785 24.2904 24.3331C23.65 24.9878 22.8853 25.5079 22.0412 25.863C21.197 26.2181 20.2905 26.4011 19.3747 26.4011C18.4589 26.4011 17.5523 26.2181 16.7082 25.863C15.864 25.5079 15.0993 24.9878 14.4589 24.3331C13.8185 23.6785 13.3153 22.9025 12.9789 22.0507C12.6424 21.199 12.4795 20.2886 12.4997 19.373C12.5392 17.5759 13.281 15.8657 14.566 14.6086C15.851 13.3516 17.5771 12.6477 19.3747 12.6477C21.1723 12.6477 22.8984 13.3516 24.1834 14.6086C25.4684 15.8657 26.2101 17.5759 26.2497 19.373Z" fill="white"/>
</svg>
