<svg width="80" height="80" viewBox="0 0 80 80" fill="none" xmlns="http://www.w3.org/2000/svg">
<path d="M71.111 13.333H8.88878C7.71004 13.333 6.57958 13.8013 5.74608 14.6348C4.91259 15.4682 4.44434 16.5987 4.44434 17.7775V62.2219C4.44434 63.4006 4.91259 64.5311 5.74608 65.3646C6.57958 66.1981 7.71004 66.6663 8.88878 66.6663H71.111C72.2897 66.6663 73.4202 66.1981 74.2537 65.3646C75.0872 64.5311 75.5554 63.4006 75.5554 62.2219V17.7775C75.5554 16.5987 75.0872 15.4682 74.2537 14.6348C73.4202 13.8013 72.2897 13.333 71.111 13.333ZM67.6888 62.2219H12.5777L28.1332 46.133L24.9332 43.0441L8.88878 59.6441V21.1552L36.511 48.6441C37.3437 49.4719 38.4702 49.9365 39.6443 49.9365C40.8185 49.9365 41.9449 49.4719 42.7777 48.6441L71.111 20.4663V59.3552L54.7554 42.9997L51.6221 46.133L67.6888 62.2219ZM11.7999 17.7775H67.511L39.6443 45.4886L11.7999 17.7775Z" fill="white"/>
</svg>
