<svg width="150" height="68" viewBox="0 0 150 68" fill="none" xmlns="http://www.w3.org/2000/svg">
<path d="M52.0295 50.2529C61.6079 41.0016 61.6079 26.0023 52.0295 16.751C42.4511 7.49966 26.9215 7.49965 17.3432 16.751C7.7648 26.0023 7.7648 41.0016 17.3432 50.2529C26.9215 59.5042 42.4511 59.5042 52.0295 50.2529Z" fill="#75AADB"/>
<path d="M64.4316 40.5284C65.7063 41.316 67.5272 41.9125 69.4906 41.9125C72.3962 41.9125 74.0905 40.429 74.0905 38.2879C74.0905 36.338 72.9187 35.168 69.9498 34.0975C66.3634 32.8357 64.1466 31.0082 64.1466 28.0489C64.1466 24.7378 66.9809 22.2832 71.2561 22.2832C73.4729 22.2832 75.1355 22.7879 76.0856 23.3232L75.3018 25.5637C74.613 25.1507 73.1483 24.5543 71.1611 24.5543C68.1606 24.5543 67.0205 26.2901 67.0205 27.7353C67.0205 29.7235 68.3585 30.6946 71.3907 31.834C75.1118 33.2181 76.9723 34.9539 76.9723 38.0738C76.9723 41.3466 74.4942 44.2141 69.3085 44.2141C67.1868 44.2141 64.875 43.5871 63.6953 42.8301L64.4316 40.5284Z" fill="#4D4D4D"/>
<path d="M84.1367 24.9668V28.622H88.2457V30.7325H84.1367V38.9527C84.1367 40.8415 84.6909 41.912 86.2902 41.912C87.074 41.912 87.5332 41.8509 87.9528 41.7209L88.0795 43.8314C87.5253 44.0225 86.6465 44.2061 85.5381 44.2061C84.2001 44.2061 83.1233 43.7626 82.4425 43.0438C81.6587 42.195 81.3341 40.8415 81.3341 39.0445V30.7325H78.8877V28.622H81.3341V25.785L84.1367 24.9668Z" fill="#4D4D4D"/>
<path d="M104.683 39.6783C104.683 41.2841 104.714 42.6682 104.809 43.8687H102.268L102.102 41.3835H102.038C101.318 42.6147 99.6237 44.2205 96.821 44.2205C94.3429 44.2205 91.374 42.867 91.374 37.5449V28.6211H94.2479V37.0325C94.2479 39.9307 95.1901 41.9188 97.7711 41.9188C99.6949 41.9188 101.033 40.6265 101.555 39.3648C101.722 38.9901 101.817 38.4854 101.817 37.9502V28.6211H104.691V39.6783H104.683Z" fill="#4D4D4D"/>
<path d="M123.049 21.502V39.9307C123.049 41.2841 123.113 42.8288 123.176 43.8688H120.635L120.508 41.223H120.413C119.566 42.9206 117.674 44.2129 115.093 44.2129C111.277 44.2129 108.308 41.093 108.308 36.459C108.276 31.3892 111.57 28.2999 115.386 28.2999C117.832 28.2999 119.431 29.4011 120.152 30.6016H120.215V21.502H123.049ZM120.207 34.8226C120.207 34.4785 120.176 34.0044 120.081 33.6603C119.653 31.9245 118.093 30.4793 115.94 30.4793C112.971 30.4793 111.213 33.0027 111.213 36.3367C111.213 39.426 112.813 41.98 115.877 41.98C117.8 41.98 119.566 40.7183 120.081 38.669C120.176 38.2943 120.207 37.9119 120.207 37.4684V34.8226Z" fill="#4D4D4D"/>
<path d="M131.038 24.3325C131.038 25.2807 130.349 26.0301 129.209 26.0301C128.164 26.0301 127.483 25.273 127.483 24.3325C127.483 23.3843 128.204 22.5967 129.281 22.5967C130.318 22.6043 131.038 23.3614 131.038 24.3325ZM127.84 43.87V28.6223H130.714V43.87H127.84Z" fill="#4D4D4D"/>
<path d="M149.762 36.1158C149.762 41.7515 145.685 44.2137 141.901 44.2137C137.657 44.2137 134.332 41.1856 134.332 36.3681C134.332 31.2983 137.823 28.3008 142.162 28.3008C146.699 28.3084 149.762 31.4895 149.762 36.1158ZM137.269 36.2764C137.269 39.618 139.225 42.1338 142.035 42.1338C144.775 42.1338 146.833 39.6486 146.833 36.2075C146.833 33.6229 145.495 30.3807 142.107 30.3807C138.734 30.3807 137.269 33.4088 137.269 36.2764Z" fill="#4D4D4D"/>
<path d="M43.0806 41.0626H45.7407V43.0584H41.6792L34.9497 33.3164H31.3633V41.0626H34.8705V43.0584H26.043V41.0626H29.0752V23.8956L26.043 23.5362V21.6475C27.1909 21.8998 28.1885 22.0757 29.4394 22.0757C31.3237 22.0757 33.2475 21.6475 35.1318 21.6475C38.7895 21.6475 42.1859 23.2533 42.1859 27.1761C42.1859 30.2118 40.3017 32.1388 37.3803 32.957L43.0806 41.0626ZM31.3633 31.3894L33.2871 31.4277C37.982 31.4965 39.7871 29.753 39.7871 27.4284C39.7871 24.7138 37.7524 23.6433 35.1714 23.6433C33.9522 23.6433 32.6933 23.7503 31.3633 23.8956V31.3894Z" fill="white"/>
<path d="M148.147 22.6035C147.125 22.6035 146.294 23.4064 146.294 24.3929C146.294 25.3793 147.125 26.1822 148.147 26.1822C149.168 26.1822 149.999 25.3793 149.999 24.3929C149.999 23.4064 149.168 22.6035 148.147 22.6035ZM149.698 24.3929C149.698 25.2187 149.002 25.884 148.154 25.884C147.299 25.884 146.611 25.2111 146.611 24.3929C146.611 23.567 147.307 22.9017 148.154 22.9017C149.002 22.8941 149.698 23.567 149.698 24.3929Z" fill="#4D4D4D"/>
<path d="M148.804 25.1199L148.345 24.47C148.606 24.3782 148.741 24.1947 148.741 23.9347C148.741 23.5447 148.4 23.4071 148.076 23.4071C147.988 23.4071 147.901 23.4147 147.822 23.43C147.743 23.4376 147.656 23.4453 147.577 23.4453C147.466 23.4453 147.379 23.43 147.284 23.4071L147.236 23.3994V23.6518L147.506 23.6823V25.1199H147.236V25.3799H148.099V25.1199H147.791V24.5158H148.044L148.622 25.357L148.638 25.3723H149.057V25.1123H148.804V25.1199ZM148.448 23.9576C148.448 24.0494 148.408 24.1259 148.337 24.1794C148.25 24.2406 148.115 24.2711 147.941 24.2711H147.791V23.6823C147.901 23.6747 147.996 23.6671 148.083 23.6671C148.25 23.6671 148.448 23.7206 148.448 23.9576Z" fill="#4D4D4D"/>
</svg>
