<svg width="568" height="344" viewBox="0 0 568 344" fill="none" xmlns="http://www.w3.org/2000/svg">
<path d="M56.178 39.9852C117.254 20.8737 194.528 7.41485 243.119 42.6773C291.71 77.9397 327.142 12.5294 386.531 27.6034C445.92 42.6773 417.913 99.2046 478.314 66.3649C538.716 33.5253 606.541 168.652 538.716 177.266C470.891 185.88 466.504 209.029 523.869 252.636C581.233 296.243 311.282 311.317 296.772 252.636C282.262 193.955 162.471 249.675 77.4368 252.636C-7.59791 255.597 -19.0707 145.772 25.8086 133.659C70.6878 121.546 -4.89835 59.0968 56.178 39.9852Z" fill="#FFDB96"/>
<path d="M236.791 95.8878C169.036 109.072 228.562 51.7808 178.362 42.1923C128.163 32.6038 99.3603 86.0596 99.3603 86.0596C99.3603 86.0596 77.6896 165.644 110.607 207.833C143.525 250.022 213.749 195.128 253.25 232.044C292.751 268.96 334.72 321.696 416.191 262.487C497.662 203.279 498.485 255.296 536.066 232.044C573.647 208.792 573.372 186.259 554.445 151.501C535.517 116.743 460.904 151.501 441.702 127.29C422.501 103.079 441.702 55.8559 378.336 47.466C314.97 39.0761 304.546 82.7036 236.791 95.8878Z" stroke="#CB7ACD" stroke-width="1.24251" stroke-linecap="round" stroke-linejoin="round" stroke-dasharray="8.28 8.28"/>
<rect width="141.27" height="145.902" transform="translate(112.159 20.0713)" fill="white"/>
<path d="M119.878 30.1069H154.617M119.878 46.3182H154.617M120.264 30.4928V45.9322M154.231 30.4928V45.9322M120.045 30.1445L154.011 46.3558M120.485 46.3126L154.471 30.1443M119.106 53.2659H246.481M119.106 99.5838H246.481M119.106 99.9728V52.8766M246.095 99.9762V52.88M119.492 107.689V155.551M188.197 107.689V155.551M177.39 106.918V154.779M246.095 106.918V154.779M119.106 107.304H177.004M187.811 107.304H245.709M119.878 155.165H177.776M188.583 155.165H246.481M129.142 66.3893H163.108M129.142 73.337H163.108M129.142 80.2847H163.108M129.142 87.2324H163.108M120.121 108.934L177.247 155.252M195.531 121.199H238.761M195.531 126.603H238.761M195.531 132.006H238.761M195.531 137.41H238.761M195.531 142.814H238.761M153.845 46.3182H246.481M153.845 30.1069H246.481M246.095 30.4928V46.7041M113.317 22.0012L113.317 164.815M252.271 22.0012L252.271 164.815M112.931 21.6152H251.885M113.703 164.429H252.657" stroke="#4D4D4D" stroke-width="2.3159"/>
<rect width="139.726" height="142.814" transform="translate(310.555 14.668)" fill="white"/>
<rect x="316.73" y="45.5459" width="127.374" height="47.09" fill="white"/>
<rect x="318.274" y="23.1592" width="125.059" height="15.4393" fill="#505050"/>
<line x1="317.502" y1="22.7732" x2="352.24" y2="22.7732" stroke="black" stroke-width="0.771967"/>
<line x1="317.502" y1="38.9841" x2="352.24" y2="38.9841" stroke="black" stroke-width="0.771967"/>
<line x1="317.888" y1="23.1592" x2="317.888" y2="38.5985" stroke="black" stroke-width="0.771967"/>
<path fill-rule="evenodd" clip-rule="evenodd" d="M317.116 45.543V45.5463H444.104V92.6426H443.332V92.6362H317.116V92.6393H316.344V45.543H317.116ZM443.332 91.8643V46.3182H317.116V91.8643H443.332Z" fill="#C4C4C4"/>
<line x1="317.116" y1="100.355" x2="317.116" y2="148.217" stroke="black" stroke-width="0.771967"/>
<line x1="317.116" y1="100.355" x2="317.116" y2="148.217" stroke="#C4C4C4" stroke-width="0.771967"/>
<line x1="375.014" y1="99.584" x2="375.014" y2="147.446" stroke="#C4C4C4" stroke-width="0.771967"/>
<line x1="316.73" y1="99.9695" x2="374.628" y2="99.9695" stroke="#C4C4C4" stroke-width="0.771967"/>
<line x1="317.502" y1="147.832" x2="375.399" y2="147.832" stroke="black" stroke-width="0.771967"/>
<line x1="317.502" y1="147.832" x2="375.399" y2="147.832" stroke="#C4C4C4" stroke-width="0.771967"/>
<line x1="326.766" y1="59.0554" x2="360.732" y2="59.0554" stroke="black" stroke-width="0.771967"/>
<line x1="326.766" y1="66.0037" x2="360.732" y2="66.0037" stroke="black" stroke-width="0.771967"/>
<line x1="326.766" y1="72.9509" x2="360.732" y2="72.9509" stroke="black" stroke-width="0.771967"/>
<line x1="326.766" y1="79.8992" x2="360.732" y2="79.8992" stroke="black" stroke-width="0.771967"/>
<line x1="393.155" y1="113.865" x2="436.385" y2="113.865" stroke="black" stroke-width="0.771967"/>
<line x1="393.155" y1="119.269" x2="436.385" y2="119.269" stroke="black" stroke-width="0.771967"/>
<line x1="393.155" y1="124.673" x2="436.385" y2="124.673" stroke="black" stroke-width="0.771967"/>
<line x1="393.155" y1="130.077" x2="436.385" y2="130.077" stroke="black" stroke-width="0.771967"/>
<line x1="393.155" y1="135.48" x2="436.385" y2="135.48" stroke="black" stroke-width="0.771967"/>
<line x1="351.469" y1="38.9841" x2="444.105" y2="38.9841" stroke="black" stroke-width="0.771967"/>
<line x1="351.469" y1="22.7732" x2="444.105" y2="22.7732" stroke="black" stroke-width="0.771967"/>
<line x1="443.719" y1="23.1592" x2="443.719" y2="39.3705" stroke="black" stroke-width="0.771967"/>
<line x1="310.941" y1="14.668" x2="310.941" y2="157.482" stroke="black" stroke-width="0.771967"/>
<line x1="449.122" y1="14.668" x2="449.122" y2="157.482" stroke="black" stroke-width="0.771967"/>
<line x1="310.555" y1="14.282" x2="449.509" y2="14.282" stroke="black" stroke-width="0.771967"/>
<line x1="311.326" y1="157.095" x2="450.28" y2="157.095" stroke="black" stroke-width="0.771967"/>
<circle cx="356.486" cy="115.409" r="13.5094" fill="#FCE77B"/>
<path d="M336.801 110.005C331.398 107.304 317.502 115.795 317.502 115.795L317.116 116.953V147.446L375.014 147.832V129.304L374.628 129.691C374.628 129.691 364.206 134.708 346.837 135.48C329.468 136.252 342.205 112.707 336.801 110.005Z" fill="#B0E3FF"/>
<path d="M330.674 25.4756L332.889 27.2657L335.354 28.5635L335.105 31.6513L335.354 34.7392L332.889 36.037L330.674 31.6513L328.458 36.037L325.994 34.7392L326.243 31.6513L325.994 28.5635L328.458 27.2657L330.674 25.4756Z" fill="#ABB8FF"/>
<path fill-rule="evenodd" clip-rule="evenodd" d="M414.582 76.0636C414.262 75.6336 414.464 74.7798 414.99 73.7201C418.541 72.2932 421.209 69.1321 421.944 65.2851C422.826 64.5812 423.543 64.2025 423.911 64.3516C424.644 64.7227 425.472 64.9319 426.35 64.9319C429.334 64.9319 431.754 62.5125 431.754 59.5281C431.754 56.5437 429.334 54.1243 426.35 54.1243C424.169 54.1243 422.289 55.4167 421.436 57.2774C421.266 57.5762 420.775 57.5933 420.369 57.0122C418.345 53.8322 414.788 51.7227 410.739 51.7227C404.439 51.7227 399.331 56.8302 399.331 63.1306C399.331 67.382 401.657 71.0902 405.105 73.0525C405.73 73.452 405.732 74.0379 405.334 74.3025C403.181 75.5484 401.733 77.8765 401.733 80.5427C401.733 84.522 404.959 87.7478 408.938 87.7478C412.917 87.7478 416.143 84.522 416.143 80.5427C416.143 78.8499 415.559 77.2934 414.582 76.0636Z" fill="url(#paint0_linear_332_833)"/>
<rect x="125.282" y="203.027" width="92.6392" height="112.707" rx="15.4393" fill="white"/>
<rect x="126.828" y="204.571" width="89.5481" height="109.619" rx="13.8954" stroke="black" stroke-width="3.08787"/>
<line x1="125.282" y1="220.396" x2="217.921" y2="220.396" stroke="black" stroke-width="3.08787"/>
<path d="M144.375 261.562C143.428 262.509 143.428 264.045 144.375 264.993L159.815 280.433C160.763 281.381 162.299 281.381 163.246 280.433C164.194 279.486 164.194 277.949 163.246 277.002L149.522 263.277L163.246 249.553C164.194 248.605 164.194 247.069 163.246 246.122C162.299 245.174 160.763 245.174 159.815 246.122L144.375 261.562ZM147.708 260.851H146.091V265.704H147.708V260.851Z" fill="#FF0000"/>
<path d="M198.829 264.92C199.777 263.972 199.777 262.436 198.829 261.489L183.389 246.048C182.442 245.101 180.905 245.101 179.958 246.048C179.01 246.996 179.01 248.532 179.958 249.48L193.682 263.204L179.958 276.929C179.01 277.876 179.01 279.412 179.958 280.36C180.905 281.307 182.442 281.307 183.389 280.36L198.829 264.92ZM195.496 265.63H197.114V260.778H195.496V265.63Z" fill="#FF0000"/>
<path d="M302.835 200.712C302.835 196.448 306.291 192.992 310.555 192.992H442.561C446.824 192.992 450.281 196.448 450.281 200.712V205.344H302.835V200.712Z" fill="#555555"/>
<path d="M442.561 295.277H310.554C306.504 295.277 303.221 291.994 303.221 287.943V204.185H449.894V287.943C449.894 291.994 446.611 295.277 442.561 295.277Z" fill="white" stroke="#555555" stroke-width="0.771967"/>
<circle cx="436.385" cy="199.168" r="1.54393" fill="#FF0000"/>
<circle cx="428.665" cy="199.168" r="1.54393" fill="#FFCD6A"/>
<circle cx="420.945" cy="199.168" r="1.54393" fill="#79BC90"/>
<rect x="313.256" y="243.556" width="74.8808" height="91.092" rx="7.33368" fill="white" stroke="#555555" stroke-width="0.771967"/>
<rect x="402.032" y="257.451" width="34.7385" height="58.6695" rx="7.33368" fill="white" stroke="#555555" stroke-width="0.771967"/>
<circle cx="350.696" cy="328.086" r="3.08787" fill="#C4C4C4"/>
<rect x="317.502" y="250.117" width="66.3891" height="73.3368" fill="#C4C4C4"/>
<rect x="405.506" y="260.925" width="27.7908" height="50.9498" fill="#C4C4C4"/>
<defs>
<linearGradient id="paint0_linear_332_833" x1="415.542" y1="51.7227" x2="415.542" y2="87.7478" gradientUnits="userSpaceOnUse">
<stop stop-color="#794AFF"/>
<stop offset="1" stop-color="#00C159"/>
</linearGradient>
</defs>
</svg>
