<svg width="80" height="80" viewBox="0 0 80 80" fill="none" xmlns="http://www.w3.org/2000/svg">
<path d="M54.5337 46.667C54.8003 44.467 55.0003 42.267 55.0003 40.0003C55.0003 37.7337 54.8003 35.5337 54.5337 33.3337H65.8003C66.3337 35.467 66.667 37.7003 66.667 40.0003C66.667 42.3003 66.3337 44.5337 65.8003 46.667H54.5337ZM48.6337 65.2003C50.6337 61.5003 52.167 57.5003 53.2337 53.3337H63.067C59.8376 58.8946 54.714 63.107 48.6337 65.2003V65.2003ZM47.8003 46.667H32.2003C31.867 44.467 31.667 42.267 31.667 40.0003C31.667 37.7337 31.867 35.5003 32.2003 33.3337H47.8003C48.1003 35.5003 48.3337 37.7337 48.3337 40.0003C48.3337 42.267 48.1003 44.467 47.8003 46.667ZM40.0003 66.5337C37.2337 62.5337 35.0003 58.1003 33.6337 53.3337H46.367C45.0003 58.1003 42.767 62.5337 40.0003 66.5337ZM26.667 26.667H16.9337C20.1298 21.091 25.2496 16.8719 31.3337 14.8003C29.3337 18.5003 27.8337 22.5003 26.667 26.667ZM16.9337 53.3337H26.667C27.8337 57.5003 29.3337 61.5003 31.3337 65.2003C25.2624 63.1059 20.1498 58.8927 16.9337 53.3337V53.3337ZM14.2003 46.667C13.667 44.5337 13.3337 42.3003 13.3337 40.0003C13.3337 37.7003 13.667 35.467 14.2003 33.3337H25.467C25.2003 35.5337 25.0003 37.7337 25.0003 40.0003C25.0003 42.267 25.2003 44.467 25.467 46.667H14.2003ZM40.0003 13.4337C42.767 17.4337 45.0003 21.9003 46.367 26.667H33.6337C35.0003 21.9003 37.2337 17.4337 40.0003 13.4337V13.4337ZM63.067 26.667H53.2337C52.1904 22.5385 50.6456 18.5533 48.6337 14.8003C54.767 16.9003 59.867 21.1337 63.067 26.667ZM40.0003 6.66699C21.567 6.66699 6.66699 21.667 6.66699 40.0003C6.66699 48.8409 10.1789 57.3193 16.4301 63.5706C19.5254 66.6658 23.2 69.1212 27.2442 70.7963C31.2884 72.4715 35.6229 73.3337 40.0003 73.3337C48.8409 73.3337 57.3193 69.8218 63.5706 63.5706C69.8218 57.3193 73.3337 48.8409 73.3337 40.0003C73.3337 35.6229 72.4715 31.2884 70.7963 27.2442C69.1212 23.2 66.6658 19.5254 63.5706 16.4301C60.4753 13.3348 56.8006 10.8795 52.7564 9.20434C48.7123 7.52918 44.3777 6.66699 40.0003 6.66699V6.66699Z" fill="white"/>
</svg>
