<svg width="100" height="100" viewBox="0 0 100 100" fill="none" xmlns="http://www.w3.org/2000/svg">
<path d="M66.6667 66.6663C75.8714 66.6663 83.3333 59.2044 83.3333 49.9997C83.3333 40.7949 75.8714 33.333 66.6667 33.333C57.4619 33.333 50 40.7949 50 49.9997C50 59.2044 57.4619 66.6663 66.6667 66.6663Z" fill="#19BCFE"/>
<path fill-rule="evenodd" clip-rule="evenodd" d="M33.3337 100C37.7539 100 41.9932 98.2444 45.1188 95.1188C48.2444 91.9932 50.0003 87.7539 50.0003 83.3337V66.667H33.3337C28.9134 66.667 24.6742 68.4229 21.5485 71.5485C18.4229 74.6742 16.667 78.9134 16.667 83.3337C16.667 87.7539 18.4229 91.9932 21.5485 95.1188C24.6742 98.2444 28.9134 100 33.3337 100V100Z" fill="#09CF83"/>
<path fill-rule="evenodd" clip-rule="evenodd" d="M33.3337 66.6663H50.0003V33.333H33.3337C28.9134 33.333 24.6742 35.089 21.5485 38.2146C18.4229 41.3402 16.667 45.5794 16.667 49.9997C16.667 54.42 18.4229 58.6592 21.5485 61.7848C24.6742 64.9104 28.9134 66.6663 33.3337 66.6663V66.6663Z" fill="#A259FF"/>
<path fill-rule="evenodd" clip-rule="evenodd" d="M33.3337 33.3333H50.0003V0H33.3337C28.9134 0 24.6742 1.75595 21.5485 4.88155C18.4229 8.00716 16.667 12.2464 16.667 16.6667C16.667 21.0869 18.4229 25.3262 21.5485 28.4518C24.6742 31.5774 28.9134 33.3333 33.3337 33.3333V33.3333Z" fill="#F24E1E"/>
<path fill-rule="evenodd" clip-rule="evenodd" d="M66.6667 33.3333H50V0H66.6667C71.0869 0 75.3262 1.75595 78.4518 4.88155C81.5774 8.00716 83.3333 12.2464 83.3333 16.6667C83.3333 21.0869 81.5774 25.3262 78.4518 28.4518C75.3262 31.5774 71.0869 33.3333 66.6667 33.3333Z" fill="#FF7262"/>
</svg>
